<svg width="22" height="22" viewBox="0 0 22 22" fill="none" xmlns="http://www.w3.org/2000/svg">
<circle cx="11" cy="11" r="11" fill="white"/>
<path opacity="0.5" fill-rule="evenodd" clip-rule="evenodd" d="M12.8373 8.91021C12.3033 8.34796 11.5618 7.99869 10.7412 7.99869C9.92059 7.99869 9.17901 8.34796 8.64553 8.91021H5V7.36C5 6.5645 5.37968 5.8615 5.96064 5.43407V7.97551H6.42685V5.16975C6.53249 5.12583 6.64232 5.08969 6.75521 5.06251V7.97551H7.22135V5.00109C7.22923 5.00101 7.23701 5.00079 7.24477 5.00056C7.25452 5.00028 7.26424 5 7.27408 5H7.54336V7.97551H8.00958V5H14.2236C15.4793 5 16.4977 6.05667 16.4977 7.36H16.4973V8.91021H12.8373ZM13.8642 5.98671C13.6625 5.98671 13.4992 6.15627 13.4992 6.36528V7.66952C13.4992 7.87852 13.6625 8.04808 13.8642 8.04808H15.0933C15.2949 8.04808 15.4582 7.87852 15.4582 7.66952V6.36528C15.4582 6.15627 15.2949 5.98671 15.0933 5.98671H13.8642ZM11.6761 8.91021C11.8798 9.00653 12.0674 9.13302 12.2337 9.28405C12.7077 9.71582 13.0078 10.3483 13.0078 11.0523C13.0078 12.3497 11.9911 13.4048 10.7412 13.4048C9.49159 13.4048 8.47487 12.3497 8.47487 11.0523C8.47487 10.3483 8.77495 9.71582 9.24893 9.28405C9.41498 9.13302 9.60274 9.00653 9.80635 8.91021C10.0917 8.77573 10.4082 8.69997 10.7412 8.69997C11.0745 8.69997 11.391 8.77573 11.6761 8.91021ZM9.0736 11.0523C9.0736 12.0126 9.82345 12.7909 10.7486 12.7909C11.6738 12.7909 12.4237 12.0126 12.4237 11.0523C12.4237 10.0923 11.6738 9.31409 10.7486 9.31409C9.82345 9.31409 9.0736 10.0923 9.0736 11.0523ZM14.2236 16.9957H7.27409C6.01839 16.9957 5.00001 15.9393 5.00001 14.6357V9.28404H8.34372C8.00124 9.78313 7.79939 10.393 7.79939 11.0523C7.79939 12.7387 9.11659 14.1061 10.7412 14.1061C12.366 14.1061 13.6834 12.7387 13.6834 11.0523C13.6834 10.393 13.4812 9.78313 13.139 9.28404H16.4977V14.6357C16.4977 15.9393 15.4796 16.9957 14.2236 16.9957Z" fill="black"/>
</svg>
